<?xml version="1.0" encoding="utf-8"?>
<!-- Generator: Adobe Illustrator 22.0.1, SVG Export Plug-In . SVG Version: 6.00 Build 0)  -->
<svg version="1.1" id="Layer_1" xmlns="http://www.w3.org/2000/svg" xmlns:xlink="http://www.w3.org/1999/xlink" x="0px" y="0px"
	 viewBox="0 0 319.7 512" style="enable-background:new 0 0 319.7 512;" xml:space="preserve">
<style type="text/css">
	.st0{fill:#FFDD00;}
</style>
<g>
	<path class="st0" d="M159.8,506C75,506,6,437,6,352.1V159.8C6,75,75,6,159.8,6c41.1,0,79.7,16,108.8,45
		c29.1,29.1,45.1,67.8,45,108.7v192.4C313.6,437,244.6,506,159.8,506z M152.8,147.6c-7.2,2.9-12.4,9.9-12.4,18.1v4
		c0,10.8,8.7,19.5,19.5,19.5s19.5-8.7,19.5-19.5v-4c0-8.2-5.1-15.3-12.4-18.1c7.2-2.9,12.4-9.9,12.4-18.2V97.5
		c0-10.8-8.7-19.5-19.5-19.5s-19.5,8.7-19.5,19.5v31.9C140.4,137.6,145.5,144.7,152.8,147.6z"/>
	<path d="M159.8,12c39.5,0,76.6,15.4,104.5,43.3c28,28,43.4,65.1,43.3,104.5v192.4c0,81.5-66.3,147.8-147.8,147.8S12,433.7,12,352.1
		V159.8C12,78.3,78.3,12,159.8,12 M142,147.5c-4.7,4.6-7.6,11.1-7.6,18.2v4c0,14.1,11.4,25.5,25.5,25.5s25.5-11.4,25.5-25.5v-4
		c0-7.1-2.9-13.5-7.6-18.2c4.7-4.6,7.6-11.1,7.6-18.1V97.5c0-14.1-11.4-25.5-25.5-25.5s-25.5,11.4-25.5,25.5v31.9
		C134.4,136.5,137.3,142.9,142,147.5 M159.8,0C71.7,0,0,71.7,0,159.8v192.3C0,440.3,71.7,512,159.8,512s159.8-71.7,159.8-159.8
		V159.8c0.1-42.7-16.6-82.8-46.8-113C242.6,16.6,202.5,0,159.8,0L159.8,0z M159.9,142.9c-7.5,0-13.5-6.1-13.5-13.5V97.5
		c0-7.5,6.1-13.5,13.5-13.5c7.5,0,13.5,6.1,13.5,13.5v31.9C173.4,136.9,167.3,142.9,159.9,142.9L159.9,142.9z M159.9,183.2
		c-7.5,0-13.5-6.1-13.5-13.5v-4c0-7.5,6.1-13.5,13.5-13.5c7.5,0,13.5,6.1,13.5,13.5v4C173.4,177.2,167.3,183.2,159.9,183.2
		L159.9,183.2z"/>
</g>
</svg>
