<?xml version="1.0" encoding="utf-8"?>
<!-- Generator: Adobe Illustrator 22.0.1, SVG Export Plug-In . SVG Version: 6.00 Build 0)  -->
<svg version="1.1" id="Слой_1" xmlns="http://www.w3.org/2000/svg" xmlns:xlink="http://www.w3.org/1999/xlink" x="0px" y="0px"
	 viewBox="0 0 186.8 200" style="enable-background:new 0 0 186.8 200;" xml:space="preserve">
<style type="text/css">
	.st0{fill:#FFFFFF;}
</style>
<path class="st0" d="M72.2,0.6c7.9,0,14.7,2.9,20.2,8.6c5.5,5.7,8.3,12.6,8.3,20.5v24.5c1.6-0.1,2.8-0.2,3.6-0.2
	c7.3,0,13.7,2.6,19.2,7.7c3.5-1.6,7.2-2.3,11-2.3c8.4,0,15.2,3.2,20.5,9.7c2-0.5,4.1-0.8,6.2-0.8c7,0,12.9,2.5,17.7,7.5
	c4.8,5,7.2,11,7.2,18v24.1c0,8.6-1,16.9-3.1,25l-10.2,40.9c-1.2,4.7-3.7,8.6-7.6,11.6c-3.9,3-8.2,4.5-13.1,4.5H72.2
	c-4.4,0-8.7-1-12.7-3.1c-4-2-7.4-4.8-10.1-8.3L6.7,131.6c-3.8-5-5.7-10.7-5.7-17.1c0-7.8,2.8-14.5,8.3-20.1c5.5-5.6,12.2-8.4,20-8.4
	c5.3,0,10.1,1.3,14.5,3.9V29.1c0-7.9,2.8-14.6,8.3-20.1C57.6,3.4,64.3,0.6,72.2,0.6z M72.2,14.8c-3.9,0-7.3,1.4-10.1,4.2
	c-2.8,2.8-4.2,6.1-4.2,10.1V86v42.7l-16.8-22.5c-3-4-7-6-11.9-6c-3.9,0-7.1,1.4-9.9,4.2c-2.7,2.8-4.1,6.2-4.1,10c0,3.2,1,6,2.9,8.6
	l42.7,56.9c2.8,3.8,6.6,5.7,11.3,5.7H152c1.6,0,3.1-0.5,4.4-1.5c1.3-1,2.1-2.3,2.5-3.8l10.2-40.9c1.8-7.1,2.7-14.3,2.7-21.6V93.7
	c0-3-1-5.7-3.1-7.9c-2.1-2.2-4.6-3.3-7.6-3.3c-3,0-5.5,1-7.6,3.1s-3.1,4.6-3.1,7.6h-3.6v-6.8c0-3.6-1.2-6.6-3.6-9.1
	c-2.4-2.5-5.3-3.7-8.9-3.7c-3.4,0-6.3,1.2-8.8,3.7c-2.4,2.4-3.7,5.4-3.7,8.8v7.1h-3.6v-10c0-4.1-1.4-7.6-4.1-10.5
	c-2.7-2.9-6.1-4.4-10.1-4.4c-3.9,0-7.3,1.4-10.1,4.2c-2.8,2.8-4.2,6.1-4.2,10.1v10.7h-3.6V29.7c0-4.1-1.4-7.6-4.1-10.5
	S76.2,14.8,72.2,14.8z M86.4,157.2v-42.7h-3.6v42.7H86.4z M114.8,157.2v-42.7h-3.6v42.7H114.8z M143.3,157.2v-42.7h-3.6v42.7H143.3z
	"/>
</svg>
